<svg width="376" height="376" viewBox="0 0 376 376" fill="none" xmlns="http://www.w3.org/2000/svg">
<path d="M303.669 139.738C332.194 202.014 300.696 258.945 250.084 285.795C206.568 308.88 130.325 297.57 88.3788 265.878C45.6998 233.632 40.5448 199.273 66.8664 162.839C103.548 112.064 93.1698 80.68 148.027 57.4034C177.995 44.6878 211.887 53.6118 230.533 75.395C254.667 103.59 289.542 108.895 303.669 139.738Z" fill="#F3EDFF"/>
<path d="M44.6552 146.779C44.6552 146.779 40.7185 168.178 62.1272 175.838C62.1272 175.838 65.6623 154.822 44.6552 146.779Z" fill="#C9CFF2"/>
<path d="M41.05 181.829C41.05 181.829 50.0778 201.626 72.0144 195.647C72.0144 195.647 62.8784 176.394 41.05 181.829Z" fill="#C9CFF2"/>
<path d="M48.0032 204.69C48.0032 204.69 60.1029 222.774 80.7896 213.337C80.7896 213.337 68.6696 195.808 48.0032 204.69Z" fill="#C9CFF2"/>
<path d="M78.7554 162.505C78.7554 162.505 61.5602 175.838 72.4176 195.815C72.4176 195.815 89.0578 182.503 78.7554 162.505Z" fill="#C9CFF2"/>
<path d="M90.1182 185.582C90.1182 185.582 72.923 198.914 83.7804 218.892C83.7804 218.892 100.421 205.579 90.1182 185.582Z" fill="#C9CFF2"/>
<path d="M53.6199 160.564C53.6199 160.564 86.395 218.616 102.228 263.613" stroke="#C9CFF2" stroke-miterlimit="10"/>
<path d="M102.571 124.083C102.571 124.083 84.0631 225.56 124.552 257.951C165.041 290.342 166.679 264.174 166.679 264.174C166.679 264.174 163.806 155.029 102.571 124.083Z" fill="#D4DAFF"/>
<path d="M102.92 123.885C102.92 123.885 135.868 269.798 159.058 291.539" stroke="white" stroke-miterlimit="10" stroke-linecap="round"/>
<path d="M25.7507 219.845C25.7507 219.845 48.3055 286.611 87.5516 293.936C126.798 301.262 129.103 277.77 129.103 277.77C129.103 277.77 71.2167 222.158 25.7507 219.845Z" fill="#C9CFF2"/>
<path d="M24.0166 217.645C24.0166 217.645 101.948 291.733 125.582 298.096" stroke="white" stroke-miterlimit="10" stroke-linecap="round"/>
<path d="M324.661 146.779C324.661 146.779 328.597 168.178 307.189 175.838C307.189 175.838 303.654 154.822 324.661 146.779Z" fill="#C9CFF2"/>
<path d="M328.266 181.829C328.266 181.829 319.238 201.626 297.302 195.647C297.302 195.647 306.438 176.394 328.266 181.829Z" fill="#C9CFF2"/>
<path d="M321.313 204.69C321.313 204.69 309.213 222.774 288.527 213.337C288.527 213.337 300.646 195.808 321.313 204.69Z" fill="#C9CFF2"/>
<path d="M290.561 162.505C290.561 162.505 307.756 175.838 296.899 195.815C296.899 195.815 280.258 182.503 290.561 162.505Z" fill="#C9CFF2"/>
<path d="M279.197 185.582C279.197 185.582 296.393 198.914 285.535 218.892C285.535 218.892 268.895 205.579 279.197 185.582Z" fill="#C9CFF2"/>
<path d="M315.696 160.564C315.696 160.564 282.92 218.616 267.088 263.613" stroke="#C9CFF2" stroke-miterlimit="10"/>
<path d="M251.508 252.329C211.02 284.725 194.018 259.217 194.018 259.217C194.018 259.217 212.78 191.815 248.605 152.05L257.554 163.269L253.967 146.44C261.051 139.476 268.736 133.663 277.016 129.647C277.016 129.647 291.996 219.94 251.508 252.329Z" fill="#D4DAFF"/>
<path d="M276.979 129.735C276.979 129.735 233.448 269.798 210.257 291.539" stroke="white" stroke-miterlimit="10" stroke-linecap="round"/>
<path d="M343.565 219.845C343.565 219.845 321.011 286.611 281.765 293.936C242.519 301.262 240.214 277.77 240.214 277.77C240.214 277.77 298.099 222.158 343.565 219.845Z" fill="#C9CFF2"/>
<path d="M343.088 219.827C343.088 219.827 267.368 291.733 243.734 298.095" stroke="white" stroke-miterlimit="10" stroke-linecap="round"/>
<path d="M185.797 149.558V276.405L142.654 264.043L144.677 257.523L145.595 218.938C145.347 219.539 143.008 222.698 140.474 226.044C136.09 231.819 130.006 236.076 123.072 238.204C112.996 241.295 99.2265 245.611 98.7602 246.235L86.6455 224.871L118.455 210.636L132.878 180.759C135.721 174.615 140.03 169.351 145.354 165.388C148.678 162.914 152.385 160.943 156.386 159.582L167.546 155.777L185.797 149.558Z" fill="#294385"/>
<path d="M86.6289 224.999L74.7285 215.833C73.8953 214.707 72.4507 214.216 71.1039 214.601C69.2224 215.138 68.1966 217.163 68.8749 218.998L74.833 225.81C75.3715 227.267 74.0081 228.043 72.6748 228.677L66.0121 231.452C65.3751 231.717 64.7352 231.081 64.9954 230.442L67.5296 224.229C67.7206 223.562 67.8003 222.859 67.6958 222.173C67.6071 221.591 67.3852 220.966 66.8814 220.563C64.9834 219.044 62.1889 219.495 60.8631 221.533L56.764 227.837C54.323 231.591 55.1156 236.584 58.5989 239.398L66.0632 245.427C70.7444 249.208 77.1913 249.94 82.6012 247.304L92.5208 242.579L86.6289 224.999Z" fill="#EF9B74"/>
<path d="M98.7076 246.13L71.3197 255.748C67.5372 257.635 63.0553 257.312 59.6036 254.943C59.4081 254.815 59.2201 254.672 59.0321 254.53L54.9637 251.627C52.9108 250.033 53.0537 246.882 55.2495 245.483L86.6305 224.999L98.2865 245.4L98.7076 246.13Z" fill="#EF9B74"/>
<path d="M72.3545 245.913L56.1038 252.363" stroke="#21426B" stroke-miterlimit="10" stroke-linecap="round"/>
<path d="M61.4031 241.367L69.172 237.83" stroke="#21426B" stroke-miterlimit="10" stroke-linecap="round"/>
<path d="M203.942 124.318C202.542 128.636 204.522 133.147 208.363 134.392C212.205 135.638 216.456 133.147 217.856 128.829C219.256 124.511 217.276 120 213.434 118.754C209.592 117.509 205.342 119.999 203.942 124.318Z" fill="#EF8B5D"/>
<path d="M168.926 124.318C170.326 128.636 168.346 133.147 164.504 134.393C160.662 135.639 156.412 133.147 155.011 128.829C153.611 124.511 155.591 120 159.433 118.755C163.276 117.509 167.526 119.999 168.926 124.318Z" fill="#EF8B5D"/>
<path d="M162.543 130.193C164.419 130.193 165.941 128.671 165.941 126.794C165.941 124.917 164.419 123.396 162.543 123.396C160.666 123.396 159.144 124.917 159.144 126.794C159.144 128.671 160.666 130.193 162.543 130.193Z" stroke="#B86B47" stroke-miterlimit="10" stroke-linecap="round"/>
<path d="M213.654 126.794C213.654 128.671 212.132 130.193 210.255 130.193C208.378 130.193 206.857 128.671 206.857 126.794C206.857 124.917 208.378 123.396 210.255 123.396C212.132 123.396 213.654 124.917 213.654 126.794Z" stroke="#B86B47" stroke-miterlimit="10" stroke-linecap="round"/>
<path d="M284.752 224.871L272.638 246.235C272.171 245.611 258.402 241.295 248.325 238.204C241.392 236.076 235.308 231.819 230.924 226.044C228.495 222.84 226.254 219.817 225.848 219.028C225.848 219.028 225.841 219.028 225.841 219.02C225.826 218.99 225.811 218.96 225.803 218.938L226.72 257.523L228.743 264.043L185.609 276.405V149.558L215.012 159.582C218.87 160.898 222.464 162.778 225.698 165.125C231.18 169.125 235.617 174.479 238.519 180.759L252.943 210.636L284.752 224.871Z" fill="#294385"/>
<path d="M198.65 130.271V155.114C198.65 162.089 192.996 167.742 186.013 167.742C179.039 167.742 173.385 162.088 173.385 155.114V130.271H198.65Z" fill="#EF9B74"/>
<path d="M198.65 130.271V153.463C196.009 154.597 193.089 155.224 190.034 155.224H182.535C179.267 155.224 176.17 154.513 173.385 153.226V130.271H198.65Z" fill="#EF8B5D"/>
<path d="M209.705 113.381V131.386C209.705 142.431 200.76 151.376 189.715 151.376H182.877C171.833 151.376 162.888 142.431 162.888 131.386V113.381C162.888 102.677 171.563 94.0015 182.267 94.0015H190.325C191.321 94.0015 192.301 94.0789 193.25 94.2256C202.566 95.6303 209.705 103.672 209.705 113.381Z" fill="#EF9B74"/>
<path d="M178.674 119.475C178.674 121.786 176.8 123.659 174.49 123.659C172.179 123.659 170.305 121.786 170.305 119.475" stroke="#262347" stroke-miterlimit="10" stroke-linecap="round"/>
<path d="M203.348 119.475C203.348 121.786 201.475 123.659 199.164 123.659C196.853 123.659 194.979 121.786 194.979 119.475" stroke="#262347" stroke-miterlimit="10" stroke-linecap="round"/>
<path d="M190.48 133.73C190.48 136.041 188.607 137.914 186.296 137.914C183.985 137.914 182.112 136.041 182.112 133.73" stroke="#CC7045" stroke-miterlimit="10" stroke-linecap="round"/>
<path d="M179.166 128.408C179.166 129.864 177.165 131.043 174.697 131.043C172.229 131.043 170.228 129.864 170.228 128.408C170.228 126.953 172.229 125.773 174.697 125.773C177.165 125.773 179.166 126.953 179.166 128.408Z" fill="#EF8B5D"/>
<path d="M202.948 128.408C202.948 129.864 200.947 131.043 198.479 131.043C196.011 131.043 194.01 129.864 194.01 128.408C194.01 126.953 196.011 125.773 198.479 125.773C200.947 125.773 202.948 126.953 202.948 128.408Z" fill="#EF8B5D"/>
<path d="M187.632 329.461C261.005 329.461 320.485 319.4 320.485 306.99C320.485 294.58 261.005 284.52 187.632 284.52C114.26 284.52 54.7795 294.58 54.7795 306.99C54.7795 319.4 114.26 329.461 187.632 329.461Z" fill="#E6E9FF"/>
<path d="M129.908 253.229L120.102 292.581L91.9846 289.062C80.479 287.618 72.5905 276.751 74.7864 265.366C76.6212 255.831 84.9684 249.108 94.4512 249.108C95.2558 249.108 96.068 249.153 96.8801 249.251L129.908 253.229Z" fill="#EF8B5D"/>
<path d="M279.549 289.062L254.003 292.258L239.888 253.439L274.661 249.251C275.473 249.153 276.285 249.108 277.09 249.108C286.572 249.108 294.92 255.831 296.754 265.366C298.95 276.751 291.054 287.618 279.549 289.062Z" fill="#EF8B5D"/>
<path d="M254.003 292.257L185.947 300.777L185.774 296.536L185.594 300.777L120.102 292.581L129.908 253.229L176.698 258.869C182.721 259.598 188.82 259.598 194.843 258.869L239.888 253.439L254.003 292.257Z" fill="#193150"/>
<path d="M169.785 84.4146H165.794C162.921 84.4146 160.592 86.7435 160.592 89.6169V118.423L162.936 118.612C164.565 112.581 169.04 114.524 169.04 109.713L169.785 84.4146Z" fill="#193150"/>
<path d="M202.674 84.4146H206.665C209.538 84.4146 211.867 86.7435 211.867 89.6169V118.461L209.691 118.679C209.397 111.79 203.505 113.17 203.505 108.36L202.674 84.4146Z" fill="#193150"/>
<path d="M208.349 96.933C184.315 109.431 164.132 96.933 164.132 96.933V85.1867C164.132 85.0363 164.139 84.8859 164.154 84.7355C164.38 82.1938 166.515 80.2085 169.11 80.2085H203.371C206.123 80.2085 208.349 82.4344 208.349 85.1867C208.349 85.1867 211.936 95.0605 208.349 96.933Z" fill="#193150"/>
<path d="M284.771 224.999L296.671 215.833C297.504 214.707 298.949 214.216 300.296 214.601C302.177 215.138 303.203 217.163 302.525 218.998L296.567 225.81C296.029 227.267 297.392 228.043 298.725 228.677L305.388 231.452C306.025 231.717 306.665 231.081 306.405 230.442L303.871 224.229C303.68 223.562 303.6 222.859 303.704 222.173C303.793 221.591 304.015 220.966 304.519 220.563C306.417 219.044 309.211 219.495 310.537 221.533L314.636 227.837C317.077 231.591 316.285 236.584 312.801 239.398L305.336 245.427C300.655 249.208 294.208 249.94 288.798 247.304L278.879 242.579L284.771 224.999Z" fill="#EF9B74"/>
<path d="M284.771 224.999L316.153 245.482C318.344 246.882 318.489 250.029 316.437 251.625L312.37 254.532C308.85 257.27 304.071 257.743 300.083 255.749L272.691 246.131L284.771 224.999Z" fill="#EF9B74"/>
<path d="M299.044 245.913L315.295 252.363" stroke="#21426B" stroke-miterlimit="10" stroke-linecap="round"/>
<path d="M309.996 241.367L302.227 237.83" stroke="#21426B" stroke-miterlimit="10" stroke-linecap="round"/>
<path d="M239.888 253.439C239.888 253.439 211.169 263.381 187.451 263.997C163.74 264.614 129.908 253.229 129.908 253.229L176.697 258.869C182.721 259.598 188.82 259.598 194.843 258.869L239.888 253.439Z" fill="#1D3A5E"/>
<path d="M226.222 290.397L183.833 290.475L177.154 318.178L197.243 321.878C211.54 324.511 225.672 316.528 230.795 302.923L232.242 299.081C233.826 294.877 230.714 290.389 226.222 290.397Z" fill="#EF8B5D"/>
<path d="M183.834 290.471L183.533 291.712L177.412 317.107L177.156 318.175L175.209 317.513L134.014 303.609L87.7735 287.997C76.7868 284.29 71.2295 272.062 75.6513 261.346C78.8323 253.654 86.2771 248.938 94.1881 248.938C96.2937 248.938 98.4219 249.269 100.52 249.969L173.028 285.222L183.157 290.141L183.834 290.471Z" fill="#EF9B74"/>
<path d="M271.022 249.969L187.707 290.475L194.386 318.178L283.766 287.998C294.752 284.289 300.311 272.063 295.886 261.345C291.869 251.614 281.011 246.647 271.022 249.969Z" fill="#EF9B74"/>
<path d="M183.533 291.712L177.412 317.107L175.209 317.514L134.014 303.609C133.082 302.03 132.269 300.353 131.608 298.586L130.051 294.465C128.352 289.953 131.69 285.14 136.511 285.147L173.028 285.223L183.157 290.141L183.533 291.712Z" fill="#EF8B5D"/>
<path d="M145.318 290.397L187.707 290.475L194.386 318.178L174.297 321.878C160 324.511 145.869 316.528 140.745 302.923L139.298 299.081C137.714 294.877 140.826 290.389 145.318 290.397Z" fill="#EF9B74"/>
<path d="M140.431 301.58L154.02 300.617" stroke="#21426B" stroke-miterlimit="10" stroke-linecap="round"/>
<path d="M143.881 309.092L154.085 307.761" stroke="#21426B" stroke-miterlimit="10" stroke-linecap="round"/>
<path d="M149.286 315.373L156.896 313.656" stroke="#21426B" stroke-miterlimit="10" stroke-linecap="round"/>
<path d="M284.752 224.871L284.188 225.864L272.638 246.235C272.171 245.611 258.402 241.295 248.325 238.204C241.392 236.076 235.308 231.819 230.924 226.044C228.495 222.841 226.254 219.817 225.848 219.028C225.848 219.028 225.841 219.028 225.841 219.02C225.826 218.96 225.818 218.893 225.803 218.832C222.592 202.521 223.78 181.285 225.081 169.825C225.292 167.982 225.502 166.395 225.698 165.125C231.18 169.125 235.617 174.479 238.519 180.759L252.943 210.636L284.752 224.871Z" fill="#193150"/>
<path d="M145.67 218.832C145.655 218.893 145.647 218.96 145.632 219.02C145.632 219.028 145.625 219.028 145.625 219.028C145.219 219.817 142.978 222.841 140.549 226.044C136.165 231.819 130.081 236.076 123.148 238.204C113.071 241.295 99.3017 245.611 98.8354 246.235L88.4729 227.962L86.7207 224.871L118.53 210.636L132.954 180.759C135.856 174.479 140.293 169.125 145.775 165.125C146.016 166.696 146.287 168.742 146.535 171.148C147.776 182.857 148.761 203.131 145.67 218.832Z" fill="#193150"/>
<path d="M146.535 171.148C134.022 183.744 123.9 214.584 123.9 214.584L88.4729 227.962L86.7207 224.871L118.53 210.636L132.954 180.759C135.856 174.479 140.293 169.125 145.775 165.125C146.016 166.696 146.287 168.742 146.535 171.148Z" fill="#1D3A5E"/>
<path d="M284.753 224.871L284.189 225.864L282.737 228.225L249.679 214.238C249.679 214.238 240.565 194.746 234.211 182.458C231.045 176.337 227.668 172.314 225.081 169.825C225.292 167.982 225.502 166.395 225.698 165.125C231.18 169.125 235.617 174.479 238.52 180.759L252.943 210.636L284.753 224.871Z" fill="#1D3A5E"/>
<path d="M167.606 156.033C168.11 160.402 146.535 171.148 146.535 171.148C146.535 171.148 145.836 168.313 145.354 165.387C148.678 162.913 152.385 160.943 156.386 159.582L167.546 155.777C167.576 155.86 167.598 155.942 167.606 156.033Z" fill="#3353A6"/>
<path d="M98.7075 246.13L71.3197 255.748C67.5371 257.636 63.0552 257.312 59.6035 254.943L95.1806 240.633L98.2864 245.4L98.7075 246.13Z" fill="#EF8B5D"/>
<path d="M272.668 246.13L300.056 255.748C303.839 257.636 308.321 257.312 311.772 254.943L276.195 240.633L273.09 245.4L272.668 246.13Z" fill="#EF8B5D"/>
<path d="M177.89 112.229H171.067" stroke="#262347" stroke-miterlimit="10" stroke-linecap="round"/>
<path d="M202.383 112.229H195.561" stroke="#262347" stroke-miterlimit="10" stroke-linecap="round"/>
<path d="M199.791 80.2085C199.099 82.8179 196.723 84.7355 193.903 84.7355H164.154C164.38 82.1938 166.515 80.2085 169.11 80.2085H199.791Z" fill="#1D3A5E"/>
<path d="M238.514 63.9554C237.397 65.1895 236.397 66.1904 235.162 67.3079C233.928 66.1904 232.927 65.1902 231.809 63.9554C232.927 62.7214 233.927 61.7205 235.162 60.603C236.397 61.7205 237.397 62.7214 238.514 63.9554Z" stroke="#262347" stroke-miterlimit="10" stroke-linecap="round"/>
<path d="M130.374 107.745C129.256 108.979 128.256 109.979 127.021 111.097C125.787 109.979 124.786 108.979 123.669 107.745C124.786 106.51 125.787 105.51 127.021 104.392C128.256 105.51 129.256 106.51 130.374 107.745Z" stroke="#262347" stroke-miterlimit="10" stroke-linecap="round"/>
<path d="M240.627 106.389C240.627 107.858 239.435 109.049 237.966 109.049C236.497 109.049 235.305 107.858 235.305 106.389C235.305 104.919 236.497 103.728 237.966 103.728C239.435 103.728 240.627 104.919 240.627 106.389Z" stroke="#262347" stroke-miterlimit="10" stroke-linecap="round"/>
</svg>
